<svg xmlns="http://www.w3.org/2000/svg" viewBox="0 0 100 100">
	<rect x="7.5" y="7.5" width="85" height="85" fill="rgb(40, 80, 240)" />
	<rect x="12.5" y="12.5" width="75" height="75" fill="black" />
	<g transform="translate(28.4, 26.3)" stroke="rgb(40, 80, 240)" fill="rgb(40, 80, 240)">
		<path d="M 43.172 0 L 35.789 47.426 L 28.477 47.426 A 45412.914 45412.914 0 0 1 27.254 42.864 Q 26.073 38.459 25.225 35.288 A 10517.604 10517.604 0 0 1 24.521 32.66 Q 23.168 27.598 21.656 20.848 A 960.998 960.998 0 0 1 20.676 25.031 A 700.971 700.971 0 0 1 19.775 28.793 Q 18.914 32.344 14.73 47.426 L 7.418 47.426 L 0 0 L 6.645 0 L 10.477 29.355 A 167.211 167.211 0 0 1 10.76 31.843 Q 11.128 35.287 11.511 39.958 A 546.349 546.349 0 0 1 11.637 41.52 A 2010.345 2010.345 0 0 1 12.176 39.199 Q 12.899 36.098 13.441 33.823 A 665.316 665.316 0 0 1 13.518 33.504 A 100.319 100.319 0 0 1 13.925 31.879 Q 15.078 27.406 18.563 14.695 L 24.715 14.695 Q 26.572 21.505 27.821 26.089 A 26648.582 26648.582 0 0 1 28.529 28.687 A 180.35 180.35 0 0 1 29.245 31.401 Q 30.313 35.58 31.558 41.147 A 500.721 500.721 0 0 1 31.641 41.52 L 32.871 29.355 L 36.527 0 L 43.172 0 Z" />
	</g>
</svg>
