<svg xmlns="http://www.w3.org/2000/svg" viewBox="0 0 60 60">
	<rect stroke="#25E" x="10" y="10" width="40" height="40" stroke-width="2" />
	<path transform="translate(15, 15) scale(0.5) translate(5, 7.211)" fill="#25E" d="M 50 0 L 41.997 45.578 L 33.404 45.578 L 27.38 25.737 L 24.979 17.228 L 23.336 23.084 L 16.26 45.578 L 7.709 45.578 L 0 0 L 7.498 0 L 11.415 25.569 Q 12.716 35.975 12.8 38.93 A 13.205 13.205 0 0 1 12.806 39.301 A 321.966 321.966 0 0 1 13.484 36.566 Q 14.423 32.855 15.013 30.996 A 24.213 24.213 0 0 1 15.249 30.287 L 20.935 12.426 L 29.065 12.426 L 34.541 30.329 Q 35.889 34.752 36.858 39.301 Q 36.858 38.442 36.936 37.291 A 54.729 54.729 0 0 1 37.026 36.142 Q 37.195 34.246 37.448 32.245 A 319.003 319.003 0 0 1 37.7 30.292 A 275.494 275.494 0 0 1 37.953 28.433 Q 38.147 27.047 38.266 26.104 A 81.645 81.645 0 0 0 38.332 25.569 L 42.587 0 L 50 0 Z" />
</svg>
