<svg xmlns="http://www.w3.org/2000/svg" viewBox="0 0 100 100">
	<rect x="10" y="10" width="80" height="80" fill="black" />
	<rect x="10" y="10" width="80" height="80" fill="none" stroke="rgb(40, 80, 240)" stroke-width="5" />
	<g transform="translate(28.1, 26) scale(0.6)" stroke="rgb(40, 80, 240)" fill="rgb(40, 80, 240)">
		<path d="M 72.824 0 L 60.371 80 L 48.036 80 Q 44.676 67.469 42.55 59.526 A 17741.614 17741.614 0 0 1 41.364 55.093 A 400.384 400.384 0 0 1 39.315 47.076 Q 37.965 41.572 36.531 35.167 A 1621.042 1621.042 0 0 1 34.878 42.224 A 1182.425 1182.425 0 0 1 33.358 48.569 Q 31.999 54.174 25.732 76.81 A 6435.839 6435.839 0 0 1 24.848 80 L 12.513 80 L 0 0 L 11.208 0 L 17.672 49.518 A 282.061 282.061 0 0 1 18.15 53.714 Q 18.873 60.474 19.629 70.037 A 3391.779 3391.779 0 0 1 20.539 66.123 Q 21.846 60.519 22.802 56.516 A 169.221 169.221 0 0 1 23.49 53.774 Q 25.09 47.564 29.358 31.932 A 6902.479 6902.479 0 0 1 31.312 24.789 L 41.69 24.789 A 157602.11 157602.11 0 0 1 43.627 31.89 Q 45.511 38.801 46.93 44.009 A 44896.896 44896.896 0 0 1 48.125 48.391 Q 50.467 56.99 53.373 70.037 L 55.449 49.518 L 61.616 0 L 72.824 0 Z" />
	</g>
</svg>
